<svg
  xmlns="http://www.w3.org/2000/svg"
  viewBox="0 0 48 48"
  width="20"
  height="20"
>
  <path
    fill="#FFC107"
    d="M43.6 20.5H42V20H24v8h11.3C34 32.6 29.5 36 24 36c-6.6 0-12-5.4-12-12
    s5.4-12 12-12c3 0 5.7 1.1 7.8 2.9l5.7-5.7C34.1 6.1 29.3 4 24 4
    12.9 4 4 12.9 4 24s8.9 20 20 20 20-8.9 20-20
    c0-1.3-.1-2.7-.4-3.5z"
  />
  <path
    fill="#FF3D00"
    d="M6.3 14.7l6.6 4.8C14.6 16 19 12 24 12c3 0 5.7 1.1 7.8 2.9l5.7-5.7
    C34.1 6.1 29.3 4 24 4 16.3 4 9.7 8.2 6.3 14.7z"
  />
  <path
    fill="#4CAF50"
    d="M24 44c5.4 0 10.3-2.1 13.9-5.5l-6.4-5.4C29.5 36 27 37 24 37
    c-5.5 0-10.1-3.6-11.7-8.6l-6.5 5
    C9.6 39.7 16.3 44 24 44z"
  />
  <path
    fill="#1976D2"
    d="M43.6 20.5H42V20H24v8h11.3
    c-.6 2-1.8 3.8-3.5 5.1l6.4 5.4
    C39.9 35.3 44 30.2 44 24c0-1.3-.1-2.7-.4-3.5z"
  />
</svg>